<svg xmlns="http://www.w3.org/2000/svg" viewBox="0 0 200 200" fill="none">
  <!-- Circle border -->
  <circle cx="100" cy="100" r="94" fill="white" stroke="#B91C1C" stroke-width="3"/>

  <!-- Gold cross/plus above N -->
  <rect x="96" y="30" width="8" height="24" rx="2" fill="#D4A574"/>
  <rect x="88" y="38" width="24" height="8" rx="2" fill="#D4A574"/>

  <!-- Cupped hands around/below N -->
  <!-- Left hand -->
  <path d="M46 108 C46 98 54 88 64 86 C68 85 72 88 76 92 L84 102"
        stroke="#B91C1C" stroke-width="3" stroke-linecap="round" stroke-linejoin="round" fill="none" opacity="0.75"/>
  <path d="M46 108 C44 118 48 130 56 140 L74 152 C78 154 84 154 90 150"
        stroke="#B91C1C" stroke-width="3" stroke-linecap="round" stroke-linejoin="round" fill="none" opacity="0.75"/>
  <!-- Left fingers -->
  <path d="M64 86 L60 78" stroke="#B91C1C" stroke-width="2.5" stroke-linecap="round" opacity="0.7"/>
  <path d="M70 85 L68 76" stroke="#B91C1C" stroke-width="2.5" stroke-linecap="round" opacity="0.7"/>
  <path d="M76 86 L76 78" stroke="#B91C1C" stroke-width="2.5" stroke-linecap="round" opacity="0.7"/>

  <!-- Right hand -->
  <path d="M154 108 C154 98 146 88 136 86 C132 85 128 88 124 92 L116 102"
        stroke="#B91C1C" stroke-width="3" stroke-linecap="round" stroke-linejoin="round" fill="none" opacity="0.75"/>
  <path d="M154 108 C156 118 152 130 144 140 L126 152 C122 154 116 154 110 150"
        stroke="#B91C1C" stroke-width="3" stroke-linecap="round" stroke-linejoin="round" fill="none" opacity="0.75"/>
  <!-- Right fingers -->
  <path d="M136 86 L140 78" stroke="#B91C1C" stroke-width="2.5" stroke-linecap="round" opacity="0.7"/>
  <path d="M130 85 L132 76" stroke="#B91C1C" stroke-width="2.5" stroke-linecap="round" opacity="0.7"/>
  <path d="M124 86 L124 78" stroke="#B91C1C" stroke-width="2.5" stroke-linecap="round" opacity="0.7"/>

  <!-- Hands meeting -->
  <path d="M90 150 C96 154 104 154 110 150" stroke="#B91C1C" stroke-width="3" stroke-linecap="round" fill="none" opacity="0.75"/>

  <!-- Nuskara N - solid -->
  <path d="M72 70 L72 140 L80 140 L80 87 L120 140 L128 140 L128 70 L120 70 L120 123 L80 70 Z" fill="#B91C1C"/>
</svg>
