<svg xmlns="http://www.w3.org/2000/svg" viewBox="0 0 200 200" fill="none">
  <!-- Circle border -->
  <circle cx="100" cy="100" r="94" fill="white" stroke="#B91C1C" stroke-width="3"/>

  <!-- Gold cross/plus -->
  <rect x="94" y="28" width="12" height="30" rx="3" fill="#D4A574"/>
  <rect x="84" y="38" width="32" height="12" rx="3" fill="#D4A574"/>

  <!-- Left hand cupping -->
  <path d="M38 100 C38 86 48 74 62 70 C68 68 74 72 80 78 L90 90"
        stroke="#B91C1C" stroke-width="3.5" stroke-linecap="round" stroke-linejoin="round" fill="none" opacity="0.85"/>
  <path d="M38 100 C36 114 40 130 52 142 L72 156 C78 160 86 160 94 156"
        stroke="#B91C1C" stroke-width="3.5" stroke-linecap="round" stroke-linejoin="round" fill="none" opacity="0.85"/>
  <!-- Left fingers -->
  <path d="M62 70 L56 60" stroke="#B91C1C" stroke-width="3" stroke-linecap="round" opacity="0.75"/>
  <path d="M70 68 L66 58" stroke="#B91C1C" stroke-width="3" stroke-linecap="round" opacity="0.75"/>
  <path d="M78 70 L78 60" stroke="#B91C1C" stroke-width="3" stroke-linecap="round" opacity="0.75"/>

  <!-- Right hand cupping -->
  <path d="M162 100 C162 86 152 74 138 70 C132 68 126 72 120 78 L110 90"
        stroke="#B91C1C" stroke-width="3.5" stroke-linecap="round" stroke-linejoin="round" fill="none" opacity="0.85"/>
  <path d="M162 100 C164 114 160 130 148 142 L128 156 C122 160 114 160 106 156"
        stroke="#B91C1C" stroke-width="3.5" stroke-linecap="round" stroke-linejoin="round" fill="none" opacity="0.85"/>
  <!-- Right fingers -->
  <path d="M138 70 L144 60" stroke="#B91C1C" stroke-width="3" stroke-linecap="round" opacity="0.75"/>
  <path d="M130 68 L134 58" stroke="#B91C1C" stroke-width="3" stroke-linecap="round" opacity="0.75"/>
  <path d="M122 70 L122 60" stroke="#B91C1C" stroke-width="3" stroke-linecap="round" opacity="0.75"/>

  <!-- Hands meeting at bottom -->
  <path d="M94 156 C98 160 102 160 106 156" stroke="#B91C1C" stroke-width="3.5" stroke-linecap="round" fill="none" opacity="0.85"/>

  <!-- Heart in center of hands -->
  <path d="M100 120 C100 112 90 106 84 112 C78 118 84 128 100 140 C116 128 122 118 116 112 C110 106 100 112 100 120Z" fill="#B91C1C" opacity="0.7"/>
</svg>
