<svg xmlns="http://www.w3.org/2000/svg" viewBox="0 0 200 200" fill="none">
  <!-- Circle border -->
  <circle cx="100" cy="100" r="94" fill="white" stroke="#B91C1C" stroke-width="3"/>

  <!-- People silhouettes above N -->
  <!-- Person left -->
  <circle cx="72" cy="42" r="6" stroke="#B91C1C" stroke-width="2" fill="#B91C1C" fill-opacity="0.15" opacity="0.8"/>
  <path d="M64 56 C64 52 68 49 72 49 C76 49 80 52 80 56" stroke="#B91C1C" stroke-width="2.5" fill="none" opacity="0.8"/>
  <!-- Person center-left -->
  <circle cx="90" cy="38" r="6" stroke="#B91C1C" stroke-width="2" fill="#B91C1C" fill-opacity="0.15" opacity="0.85"/>
  <path d="M82 52 C82 48 86 45 90 45 C94 45 98 48 98 52" stroke="#B91C1C" stroke-width="2.5" fill="none" opacity="0.85"/>
  <!-- Person center-right -->
  <circle cx="110" cy="38" r="6" stroke="#B91C1C" stroke-width="2" fill="#B91C1C" fill-opacity="0.15" opacity="0.85"/>
  <path d="M102 52 C102 48 106 45 110 45 C114 45 118 48 118 52" stroke="#B91C1C" stroke-width="2.5" fill="none" opacity="0.85"/>
  <!-- Person right -->
  <circle cx="128" cy="42" r="6" stroke="#B91C1C" stroke-width="2" fill="#B91C1C" fill-opacity="0.15" opacity="0.8"/>
  <path d="M120 56 C120 52 124 49 128 49 C132 49 136 52 136 56" stroke="#B91C1C" stroke-width="2.5" fill="none" opacity="0.8"/>

  <!-- Leaf/vine accents on sides -->
  <path d="M48 110 C55 100 55 90 48 80" stroke="#B91C1C" stroke-width="2.5" fill="none" opacity="0.6"/>
  <path d="M44 105 C50 98 50 92 44 85" stroke="#B91C1C" stroke-width="2" fill="none" opacity="0.5"/>
  <path d="M152 110 C145 100 145 90 152 80" stroke="#B91C1C" stroke-width="2.5" fill="none" opacity="0.6"/>
  <path d="M156 105 C150 98 150 92 156 85" stroke="#B91C1C" stroke-width="2" fill="none" opacity="0.5"/>

  <!-- Nuskara N - solid -->
  <path d="M72 68 L72 138 L80 138 L80 85 L120 138 L128 138 L128 68 L120 68 L120 121 L80 68 Z" fill="#B91C1C"/>

  <!-- Plant/seedling below N -->
  <path d="M100 142 L100 160" stroke="#B91C1C" stroke-width="3" stroke-linecap="round"/>
  <!-- Left leaf -->
  <path d="M100 152 C94 152 88 146 88 140 C94 140 100 146 100 152Z" fill="#B91C1C"/>
  <!-- Right leaf -->
  <path d="M100 148 C106 148 112 142 112 136 C106 136 100 142 100 148Z" fill="#B91C1C"/>
  <!-- Gold seed -->
  <circle cx="100" cy="162" r="4" fill="#D4A574"/>
  <!-- Ground arc -->
  <path d="M88 166 C94 162 106 162 112 166" stroke="#B91C1C" stroke-width="2.5" fill="none" opacity="0.7"/>
</svg>
