<svg xmlns="http://www.w3.org/2000/svg" viewBox="0 0 200 200" fill="none">
  <!-- Circle border -->
  <circle cx="100" cy="100" r="94" fill="white" stroke="#B91C1C" stroke-width="3"/>

  <!-- Graduation cap above N -->
  <path d="M100 34 L60 52 L100 70 L140 52 Z" fill="#B91C1C" opacity="0.7" stroke="#B91C1C" stroke-width="2" stroke-linejoin="round"/>
  <!-- Cap top highlight -->
  <path d="M100 34 L140 52 L100 62 L60 52 Z" fill="#B91C1C" opacity="0.5"/>
  <!-- Tassel -->
  <path d="M140 52 L140 66" stroke="#D4A574" stroke-width="3" stroke-linecap="round"/>
  <circle cx="140" cy="69" r="4" fill="#D4A574"/>

  <!-- Open book below N -->
  <!-- Book spine -->
  <path d="M100 152 L100 170" stroke="#B91C1C" stroke-width="2.5" stroke-linecap="round" opacity="0.8"/>
  <!-- Left page -->
  <path d="M100 170 C90 168 72 166 58 170 L58 152 C72 148 90 150 100 152"
        stroke="#B91C1C" stroke-width="2.5" stroke-linecap="round" stroke-linejoin="round" fill="#B91C1C" fill-opacity="0.1"/>
  <!-- Right page -->
  <path d="M100 170 C110 168 128 166 142 170 L142 152 C128 148 110 150 100 152"
        stroke="#B91C1C" stroke-width="2.5" stroke-linecap="round" stroke-linejoin="round" fill="#B91C1C" fill-opacity="0.1"/>
  <!-- Text lines left -->
  <line x1="70" y1="157" x2="92" y2="155.5" stroke="#B91C1C" stroke-width="1.5" stroke-linecap="round" opacity="0.6"/>
  <line x1="68" y1="162" x2="93" y2="160.5" stroke="#B91C1C" stroke-width="1.5" stroke-linecap="round" opacity="0.5"/>
  <!-- Text lines right -->
  <line x1="108" y1="155.5" x2="130" y2="157" stroke="#B91C1C" stroke-width="1.5" stroke-linecap="round" opacity="0.6"/>
  <line x1="107" y1="160.5" x2="132" y2="162" stroke="#B91C1C" stroke-width="1.5" stroke-linecap="round" opacity="0.5"/>

  <!-- Nuskara N - solid -->
  <path d="M72 72 L72 142 L80 142 L80 89 L120 142 L128 142 L128 72 L120 72 L120 125 L80 72 Z" fill="#B91C1C"/>
</svg>
