<svg xmlns="http://www.w3.org/2000/svg" viewBox="0 0 200 200" fill="none">
  <!-- Circle border -->
  <circle cx="100" cy="100" r="94" fill="white" stroke="#B91C1C" stroke-width="3"/>

  <!-- People silhouettes -->
  <!-- Person left -->
  <circle cx="58" cy="62" r="10" fill="#B91C1C" opacity="0.85"/>
  <path d="M44 88 C44 80 50 74 58 74 C66 74 72 80 72 88" stroke="#B91C1C" stroke-width="3" fill="#B91C1C" fill-opacity="0.15" stroke-linecap="round" opacity="0.85"/>
  <!-- Person center -->
  <circle cx="100" cy="56" r="12" fill="#B91C1C"/>
  <path d="M82 86 C82 76 90 68 100 68 C110 68 118 76 118 86" stroke="#B91C1C" stroke-width="3" fill="#B91C1C" fill-opacity="0.15" stroke-linecap="round"/>
  <!-- Person right -->
  <circle cx="142" cy="62" r="10" fill="#B91C1C" opacity="0.85"/>
  <path d="M128 88 C128 80 134 74 142 74 C150 74 156 80 156 88" stroke="#B91C1C" stroke-width="3" fill="#B91C1C" fill-opacity="0.15" stroke-linecap="round" opacity="0.85"/>

  <!-- Plant/tree growing from center -->
  <path d="M100 106 L100 158" stroke="#B91C1C" stroke-width="3.5" stroke-linecap="round"/>
  <!-- Left branch -->
  <path d="M100 130 C90 126 82 118 80 108" stroke="#B91C1C" stroke-width="2.5" fill="none" stroke-linecap="round" opacity="0.8"/>
  <!-- Left leaf -->
  <path d="M80 108 C74 108 68 100 70 94 C76 96 82 102 80 108Z" fill="#B91C1C" opacity="0.8"/>
  <!-- Right branch -->
  <path d="M100 124 C110 120 118 112 120 102" stroke="#B91C1C" stroke-width="2.5" fill="none" stroke-linecap="round" opacity="0.8"/>
  <!-- Right leaf -->
  <path d="M120 102 C126 102 132 94 130 88 C124 90 118 96 120 102Z" fill="#B91C1C" opacity="0.8"/>
  <!-- Top leaves -->
  <path d="M100 106 C94 106 86 98 88 90 C94 92 100 98 100 106Z" fill="#B91C1C"/>
  <path d="M100 106 C106 106 114 98 112 90 C106 92 100 98 100 106Z" fill="#B91C1C"/>

  <!-- Gold seed -->
  <circle cx="100" cy="162" r="5" fill="#D4A574"/>
  <!-- Ground arc -->
  <path d="M84 168 C92 162 108 162 116 168" stroke="#B91C1C" stroke-width="2.5" fill="none" opacity="0.7"/>
</svg>
