<svg xmlns="http://www.w3.org/2000/svg" viewBox="0 0 200 200" fill="none">
  <!-- Circle border -->
  <circle cx="100" cy="100" r="94" fill="white" stroke="#B91C1C" stroke-width="3"/>

  <!-- Graduation cap -->
  <path d="M100 30 L48 56 L100 82 L152 56 Z" fill="#B91C1C" opacity="0.85" stroke="#B91C1C" stroke-width="2" stroke-linejoin="round"/>
  <path d="M100 30 L152 56 L100 70 L48 56 Z" fill="#B91C1C" opacity="0.6"/>
  <!-- Tassel -->
  <path d="M152 56 L152 76" stroke="#D4A574" stroke-width="3.5" stroke-linecap="round"/>
  <circle cx="152" cy="80" r="5" fill="#D4A574"/>
  <!-- Cap drape lines -->
  <path d="M72 68 L72 90 C72 96 84 102 100 102 C116 102 128 96 128 90 L128 68" stroke="#B91C1C" stroke-width="2.5" fill="none" opacity="0.7" stroke-linecap="round"/>

  <!-- Open book -->
  <!-- Book spine -->
  <path d="M100 126 L100 174" stroke="#B91C1C" stroke-width="3" stroke-linecap="round" opacity="0.85"/>
  <!-- Left page -->
  <path d="M100 174 C88 170 66 168 48 174 L48 148 C66 142 88 144 100 148"
        stroke="#B91C1C" stroke-width="2.5" stroke-linecap="round" stroke-linejoin="round" fill="#B91C1C" fill-opacity="0.08"/>
  <!-- Right page -->
  <path d="M100 174 C112 170 134 168 152 174 L152 148 C134 142 112 144 100 148"
        stroke="#B91C1C" stroke-width="2.5" stroke-linecap="round" stroke-linejoin="round" fill="#B91C1C" fill-opacity="0.08"/>
  <!-- Text lines left -->
  <line x1="62" y1="155" x2="90" y2="152" stroke="#B91C1C" stroke-width="2" stroke-linecap="round" opacity="0.6"/>
  <line x1="58" y1="162" x2="92" y2="159" stroke="#B91C1C" stroke-width="2" stroke-linecap="round" opacity="0.5"/>
  <line x1="56" y1="169" x2="88" y2="166" stroke="#B91C1C" stroke-width="2" stroke-linecap="round" opacity="0.4"/>
  <!-- Text lines right -->
  <line x1="110" y1="152" x2="138" y2="155" stroke="#B91C1C" stroke-width="2" stroke-linecap="round" opacity="0.6"/>
  <line x1="108" y1="159" x2="142" y2="162" stroke="#B91C1C" stroke-width="2" stroke-linecap="round" opacity="0.5"/>
  <line x1="112" y1="166" x2="144" y2="169" stroke="#B91C1C" stroke-width="2" stroke-linecap="round" opacity="0.4"/>
</svg>
